Coordinates
version=1
nRows=9
nColumns=24
inDegrees=yes

Units are S.I. units (second, meters, Newtons, ...)
Angles are in degrees.

endheader
time	pelvis_tilt	pelvis_list	pelvis_rotation	pelvis_tx	pelvis_ty	pelvis_tz	hip_flexion_r	hip_adduction_r	hip_rotation_r	knee_angle_r	ankle_angle_r	subtalar_angle_r	mtp_angle_r	hip_flexion_l	hip_adduction_l	hip_rotation_l	knee_angle_l	ankle_angle_l	subtalar_angle_l	mtp_angle_l	lumbar_extension	lumbar_bending	lumbar_rotation
      1.26616667	      0.48938015	     -4.98250674	     -2.03007726	      0.04031921	      1.03986384	      0.31224502	    -20.40183566	     10.12002687	     -2.04115487	     -8.75530796	      4.21408474	     -4.12330923	     -1.85413426	     23.57910965	     -1.46825904	    -10.01873094	     -1.14438325	     15.41929155	     11.25517890	     -2.12463818	      3.96737217	      8.87382199	      1.82271749
      1.27033333	      0.50620210	     -4.85120914	     -2.17498620	      0.04669687	      1.03981618	      0.31246505	    -20.47731024	      9.88031838	     -2.17201091	     -9.26191746	      3.58119065	     -4.03728143	     -1.76604758	     23.40387292	     -1.35843662	    -10.07919801	     -1.47676415	     15.31880641	     10.83576364	     -2.12582744	      3.96520405	      8.67652509	      1.87240830
      1.27450000	      0.67834462	     -4.73776856	     -2.19132219	      0.05292685	      1.03992841	      0.31255187	    -20.72040173	      9.69593846	     -2.25335340	     -9.73486943	      3.04815530	     -3.88286285	     -1.52425430	     23.05867694	     -1.21636488	     -9.83650739	     -1.75346190	     14.97916696	     10.11962749	     -2.11745183	      3.91555081	      8.47776325	      1.99574000
      1.27866667	      0.68715531	     -4.70205735	     -2.31412599	      0.05905495	      1.03989566	      0.31279309	    -20.73298999	      9.56934128	     -2.28035723	    -10.37251823	      2.92148508	     -3.89192114	     -1.49996147	     22.88945458	     -1.20774259	     -9.75717506	     -2.04993911	     14.91539152	     10.07286311	     -2.11525619	      3.96691120	      8.40405296	      2.00733120
      1.28283333	      0.82202125	     -4.53525811	     -2.42053218	      0.06548938	      1.04009561	      0.31274680	    -20.86904141	      9.25816724	     -2.59584181	    -10.97647056	      2.29365428	     -3.56278283	     -0.92259062	     22.48426740	     -1.00607874	     -9.42274674	     -2.14158028	     14.24852025	      8.76637384	     -2.04463289	      3.79823531	      8.19883486	      2.22906862
      1.28700000	      0.81657411	     -4.42858521	     -2.62183076	      0.07191371	      1.04018259	      0.31301962	    -20.83649582	      9.00956972	     -2.67795771	    -11.65424438	      1.88357692	     -3.47916118	     -0.83210945	     22.26163957	     -0.94206941	     -9.57297067	     -2.33793110	     14.04909259	      8.62693998	     -2.03192926	      3.88592750	      8.10504591	      2.23254443
      1.29116667	      0.91418321	     -4.31385394	     -2.74895009	      0.07829351	      1.04041276	      0.31322231	    -20.91062317	      8.77060462	     -2.73495051	    -12.29243466	      1.24430148	     -3.24268534	     -0.44274183	     21.90587935	     -0.83668256	     -9.48941741	     -2.44651085	     13.40682071	      8.08426919	     -1.95898848	      3.93318257	      7.87078547	      2.35622866
      1.29533333	      0.93745581	     -4.22035540	     -2.89648264	      0.08467668	      1.04057139	      0.31342123	    -20.85685247	      8.54252357	     -2.92658165	    -13.03322569	      0.70679663	     -3.11961992	     -0.27017589	     21.66298397	     -0.76719404	     -9.73133854	     -2.63407317	     13.01446274	      7.73439259	     -1.92439119	      3.98731644	      7.73474434	      2.39750434
      1.29950000	      0.96702658	     -4.10416422	     -3.08515658	      0.09113012	      1.04081045	      0.31366083	    -20.79600124	      8.26821557	     -3.04798442	    -13.79161991	      0.07502328	     -2.94692604	     -0.07816086	     21.36011424	     -0.68024678	     -9.83430356	     -2.71527895	     12.43122817	      7.35632520	     -1.88301154	      4.04159919	      7.56115199	      2.46728585
